<svg width="145" height="167" viewBox="0 0 145 167" fill="none" xmlns="http://www.w3.org/2000/svg">
<g clip-path="url(#clip0_442_37)">
<path d="M115.049 148.095L121.032 144.146C138.581 133.088 108.402 61.2127 91.1186 27.6444L87.1301 25.6698C75.1648 26.328 49.2399 28.0394 41.263 29.619C31.292 31.5937 19.3266 29.619 17.3324 27.6444C15.737 26.0648 15.3382 21.7206 15.3382 19.746H19.3266H33.2862L31.292 13.8222C31.292 11.1894 28.8989 5.92377 19.3266 5.92377C7.36133 5.92377 7.36133 9.87298 3.37289 15.7968C0.182137 20.5359 7.36133 32.2519 11.3498 37.5175C41.263 77.0096 49.2399 138.222 49.2399 140.197C49.2399 141.777 43.922 148.754 41.263 152.045L115.049 148.095Z" fill="#3733FF"/>
<path d="M87.13 25.6698L105.078 23.6952C114.65 15.7967 109.066 8.55651 105.078 5.9237C103.483 4.34402 96.4363 3.9491 93.1126 3.9491L33.2861 5.9237L27.3034 7.89831C36.8757 17.3764 31.2919 26.328 27.3034 29.619L87.13 25.6698Z" fill="#3733FF"/>
<path d="M23.3154 120.451H45.2518C46.8472 120.451 48.5755 128.349 49.2402 132.299V142.172C48.5755 143.488 46.0495 146.911 41.2634 150.07C35.2807 154.019 29.298 154.019 25.3096 154.019C22.1189 154.019 13.3443 146.121 9.35586 142.172V128.349L11.3501 124.4L15.3385 122.426L23.3154 120.451Z" fill="#3733FF"/>
<path d="M28.4952 18.8758L15.88 19.9167L13.7627 22.0132L16.9387 28.3027L21.1733 30.3992L29.6426 27.2545L32.8186 22.0132L28.4952 18.8758Z" fill="#3733FF"/>
<path d="M99.3665 5.24121H103.072V7.33771L102.013 7.86183H100.425L99.3665 7.33771C99.19 7.163 98.8371 6.70876 98.8371 6.28946C98.8371 5.87016 99.19 5.41592 99.3665 5.24121Z" fill="#3733FF"/>
<path d="M91.1536 25.117C91.1536 25.117 123.115 90.4279 125.38 117.59C127.645 144.752 121.605 143.755 119.088 146.496C116.572 149.237 35.4066 152.496 35.4066 152.496" stroke="black" stroke-width="5.88217"/>
<path d="M29.4848 153.431C29.4848 153.431 10.804 154.677 8.93594 135.251C7.43428 119.635 22.4795 120.059 27.1497 120.059C31.8199 120.059 45.1299 119.685 45.1299 119.685" stroke="black" stroke-width="5.88217"/>
<path d="M26.8344 30.2529L99.6364 25.1072C99.6364 25.1072 111.349 23.8229 111.032 14.3177C110.716 4.81241 96.9607 3.21015 95.9057 3.1057C94.8508 3.00124 21.8128 6.30258 21.8128 6.30258" stroke="black" stroke-width="5.88217"/>
<path d="M22.7062 120.171C22.7062 120.171 28.4857 120.369 31.9264 122.119C35.6604 124.017 39.265 127.535 38.0619 133.951C35.7503 146.278 29.8061 144.429 26.5038 143.813C23.2015 143.197 20.5597 139.058 20.8899 137.737C21.2201 136.416 21.2201 136.416 21.2201 136.416L37.7317 135.448" stroke="black" stroke-width="5.88217"/>
<path d="M21.4292 6.22378C16.7591 6.22378 1.71386 5.80026 3.21552 21.4158C3.8469 27.9815 6.39886 32.1858 9.63983 35.0664C15.9541 41.4529 28.2604 65.8285 34.5191 82.5472C38.0651 92.0195 55.0691 137.209 46.6482 146.102C38.2273 154.995 26.3389 153.234 26.3389 153.234" stroke="black" stroke-width="5.88217"/>
<path d="M16.9859 6.336C16.9859 6.336 22.7655 6.53453 26.2062 8.28406C29.9402 10.1827 33.5448 13.7006 32.3417 20.1162C30.0301 32.4436 25.8605 30.2764 20.7836 29.9781C18.0163 29.8155 16.0679 26.4994 15.1697 23.9025C14.7292 22.629 15.4999 19.8775 15.4999 19.8775L32.0115 18.909" stroke="black" stroke-width="5.88217"/>
<line y1="-1.47054" x2="46.8058" y2="-1.47054" transform="matrix(0.997828 -0.0658677 0.0671767 0.997741 39.8848 50.4736)" stroke="white" stroke-width="2.94109"/>
<line y1="-1.47054" x2="46.8058" y2="-1.47054" transform="matrix(0.997828 -0.0658677 0.0671767 0.997741 46.1118 65.8881)" stroke="black" stroke-width="2.94109"/>
<line y1="-1.47054" x2="46.8058" y2="-1.47054" transform="matrix(0.997828 -0.0658677 0.0671767 0.997741 52.3389 81.303)" stroke="black" stroke-width="2.94109"/>
<line y1="-1.47054" x2="46.8058" y2="-1.47054" transform="matrix(0.997828 -0.0658677 0.0671767 0.997741 58.5659 96.718)" stroke="black" stroke-width="2.94109"/>
<line y1="-1.47054" x2="46.8058" y2="-1.47054" transform="matrix(0.997828 -0.0658677 0.0671767 0.997741 64.7935 112.133)" stroke="black" stroke-width="2.94109"/>
</g>
<g clip-path="url(#clip1_442_37)">
<path d="M93.3437 90.0355C88.2711 90.8791 83.6631 93.2562 79.9845 96.8987C76.3059 100.541 73.9245 105.104 73.0532 110.126C72.8403 111.392 71.7367 112.274 70.4782 112.274C70.3233 112.274 70.1878 112.254 70.0329 112.235C68.6002 112.005 67.6515 110.663 67.8838 109.245C68.9293 103.167 71.8335 97.6271 76.2672 93.2371C80.7009 88.847 86.2962 85.9714 92.4337 84.9361C93.8664 84.7061 95.2023 85.6455 95.454 87.0449C95.7057 88.4444 94.7764 89.8055 93.3437 90.0355Z" fill="#FF974D"/>
<path d="M51.2915 108.497C53.0146 98.4895 57.7775 89.3834 65.096 82.1369C72.4145 74.8904 81.611 70.1744 91.7175 68.4682C93.1308 68.2189 94.4668 69.1775 94.7184 70.5769C94.9508 71.9956 94.0021 73.3184 92.5694 73.5676C83.5471 75.0821 75.3186 79.3188 68.7746 85.7793C62.2305 92.259 57.9711 100.407 56.4415 109.34C56.2286 110.605 55.125 111.487 53.8665 111.487C53.7116 111.487 53.5761 111.468 53.4212 111.449C52.0079 111.238 51.0398 109.896 51.2915 108.497Z" fill="#FF974D"/>
</g>
<path d="M131.564 76.6948L114.193 95.9815C116.912 98.9629 117.146 103.204 115.978 107.516C114.709 112.199 111.739 117.22 108.012 121.501C104.286 125.78 99.7238 129.41 95.1938 131.23C90.9681 132.927 86.6158 133.092 83.0929 130.51L65.7292 149.789C68.1781 151.904 70.4358 153.59 72.9071 154.539C75.5818 155.566 78.5773 155.755 82.4329 154.512C93.4447 150.964 106.457 140.943 117.263 128.891C128.071 116.835 136.486 102.952 138.497 91.8301C139.172 88.096 138.556 85.3479 137.176 82.9659C135.895 80.7555 133.937 78.819 131.564 76.6948Z" fill="#FF974D" stroke="black" stroke-width="2"/>
<path d="M107.928 93.4689L107.928 93.469C108.808 94.246 110.167 94.1647 110.944 93.3016C110.944 93.3015 110.944 93.3015 110.944 93.3015L128.553 73.7514L128.553 73.7514C129.327 72.8925 129.254 71.5603 128.379 70.7871L122.388 65.4966L122.388 65.4966C121.508 64.7194 120.149 64.8009 119.371 65.6642L119.371 65.6642L101.763 85.2142L101.763 85.2143C100.989 86.0728 101.061 87.4052 101.937 88.1782L107.928 93.4689Z" fill="#FF974D" stroke="black" stroke-width="2"/>
<path d="M59.8227 146.878L59.8227 146.878L53.8313 141.588C53.8313 141.588 53.8313 141.588 53.8313 141.588C52.956 140.815 52.8837 139.482 53.6571 138.623L59.8227 146.878ZM59.8227 146.878C60.7026 147.655 62.0613 147.574 62.8389 146.711L80.4475 127.161L80.4475 127.161C81.221 126.302 81.1488 124.969 80.2734 124.196L80.2734 124.196L74.2822 118.906C74.2822 118.906 74.2822 118.906 74.2822 118.906C73.4022 118.129 72.0431 118.21 71.2656 119.073C71.2656 119.073 71.2656 119.073 71.2656 119.073L53.6571 138.623L59.8227 146.878Z" fill="#FF974D" stroke="black" stroke-width="2"/>
<defs>
<clipPath id="clip0_442_37">
<rect width="129.009" height="156.533" fill="white" transform="matrix(-1 0 0 1 129.009 0)"/>
</clipPath>
<clipPath id="clip1_442_37">
<rect width="91.7341" height="90.8319" fill="white" transform="matrix(-1 0 0 1 142.919 68.4287)"/>
</clipPath>
</defs>
</svg>
